<?xml version="1.0" encoding="UTF-8"?>
<svg id="Camada_1" data-name="Camada 1" xmlns="http://www.w3.org/2000/svg" xmlns:xlink="http://www.w3.org/1999/xlink" viewBox="0 0 2555.51 510.83">
  <defs>
    <style>
      .cls-1 {
        fill: #121e55;
      }

      .cls-2 {
        clip-path: url(#clippath-1);
      }

      .cls-3 {
        clip-path: url(#clippath);
      }

      .cls-4 {
        fill: #00a2ff;
      }

      .cls-5 {
        fill: none;
      }
    </style>
    <clipPath id="clippath">
      <rect class="cls-5" x="136.67" y="36.24" width="641.25" height="474.59"/>
    </clipPath>
    <clipPath id="clippath-1">
      <rect class="cls-5" x="97.51" y=".1" width="241.4" height="192.5"/>
    </clipPath>
  </defs>
  <g class="cls-3">
    <path class="cls-4" d="m675,434.17c-5.08-4.68-12.19-7.53-20.09-7.53s-14.9,2.85-20.09,7.53c-5.08,4.68-8.24,11.1-8.24,18.12s3.16,13.54,8.24,18.12,12.3,7.53,20.09,7.53,15.01-2.85,20.09-7.53c5.08-4.58,8.35-10.99,8.35-18.12s-3.27-13.54-8.35-18.12m-340.04-235.56c14.33-38.48,40.63-71.87,74.94-96.51,39.5-28.5,89.38-45.5,143.67-45.5s103.04,16.59,142.31,44.49c39.95,28.4,69.41,68.51,81.93,114.63l-46.95,10.28c-9.82-36.44-33.07-68.1-64.67-90.6-31.04-21.89-70.08-35.02-112.63-35.02s-82.5,13.44-113.53,35.94c-26.52,19.04-46.95,44.59-58.46,73.91,5.42,2.24,10.61,4.78,15.69,7.53,23.81,13.03,43.45,31.86,56.43,54.26l-42.77,20.16c-8.92-15.37-22.35-28.2-38.6-37.16-15.69-8.55-34.2-13.54-54.06-13.54-28.89,0-54.96,10.59-73.92,27.69-18.85,17.1-30.58,40.72-30.58,66.78s11.74,49.78,30.58,66.78c18.96,17.1,45.03,27.69,73.92,27.69h276.72c3.27-7.33,8.13-13.95,14.22-19.44,11.74-10.59,27.88-17.1,45.71-17.1s34.08,6.52,45.71,17.1c11.74,10.59,18.96,25.25,18.96,41.33s-7.22,30.74-18.96,41.33c-11.62,10.59-27.88,17.2-45.71,17.2s-33.97-6.62-45.71-17.2c-6.09-5.5-10.95-12.11-14.22-19.44h-276.72c-42.21,0-80.47-15.47-108.12-40.52-27.65-24.94-44.69-59.55-44.69-97.73s17.04-72.68,44.69-97.73c27.65-25.04,65.91-40.52,108.12-40.52,5.64,0,11.17.31,16.7.92Z"/>
  </g>
  <g class="cls-2">
    <path class="cls-4" d="m150.66,18.22h.11c.45,0,1.02-.1,1.47-.1h.11l.68-.1h1.69v-.1h8.13v.1h1.69l.68.1h.11c.45,0,1.02.1,1.47.1h.11c14.45,1.43,27.65,6.62,38.37,14.35,10.83,7.74,19.19,18.22,23.93,30.23-2.26.92-4.4,1.93-6.43,3.05-9.82,5.29-17.83,13.03-23.14,22.19l17.49,8.25c3.61-6.31,9.14-11.5,15.8-15.17,6.43-3.56,13.99-5.5,22.12-5.5,11.85,0,22.46,4.28,30.25,11.3,7.67,6.92,12.53,16.59,12.53,27.28s-4.85,20.36-12.53,27.38c-7.79,6.92-18.4,11.3-30.25,11.3H62.52c-11.85,0-22.46-4.38-30.25-11.3-7.67-7.02-12.53-16.7-12.53-27.38s4.85-20.36,12.53-27.28c7.79-7.02,18.4-11.3,30.25-11.3,8.13,0,15.69,1.93,22.12,5.5,6.66,3.66,12.08,8.86,15.8,15.17l17.49-8.25c-5.3-9.16-13.32-16.9-23.14-22.19-2.03-1.12-4.18-2.14-6.43-3.05,4.74-12.01,13.09-22.5,23.93-30.23,10.72-7.74,23.93-12.93,38.37-14.35m97.62,39.8c-5.87-15.68-16.7-29.42-30.7-39.5C203.71,8.55,186.55,1.93,167.93.31h-1.02l-1.02-.1-.9-.1h-1.13l-.9-.1h-8.35l-.9.1h-1.13l-.9.1-1.02.1h-1.02c-18.62,1.63-35.78,8.25-49.66,18.22-13.99,10.08-24.83,23.82-30.7,39.5-2.26-.2-4.51-.31-6.77-.31-17.27,0-32.95,6.31-44.24,16.49C7,84.49,0,98.64,0,114.22s7,29.73,18.28,40.01c11.29,10.18,26.97,16.59,44.24,16.59h192.53c17.27,0,32.95-6.41,44.24-16.59,11.29-10.28,18.28-24.43,18.28-40.01s-7-29.73-18.28-40.01c-11.29-10.18-26.97-16.49-44.24-16.49-2.26,0-4.51.1-6.77.31Z"/>
  </g>
  <path class="cls-1" d="m817.58,243.22h42.43V110.99h-42.43v132.24Zm-6.09-174.99c0,14.15,11.06,23.92,27.31,23.92s27.31-9.77,27.31-23.92-11.17-23.92-27.31-23.92-27.31,9.87-27.31,23.92Z"/>
  <path class="cls-1" d="m965.49,299.11c46.95,0,76.74-23.62,76.74-63.22v-124.91h-31.49l-4.51,14.66c-12.87-11.61-30.7-18.12-51.58-18.12-41.31,0-70.99,27.38-70.99,65.97s29.68,66.17,70.99,66.17c17.61,0,33.18-4.78,45.14-13.03v9.26c0,21.48-11.96,32.27-35.1,32.27-17.61,0-29.34-6.52-32.39-18.12h-41.31c3.61,30.44,32.05,49.07,74.49,49.07Zm-39.95-125.62c0-20.16,15.69-34.2,38.03-34.2s38.26,14.05,38.26,34.2-15.91,34.51-38.26,34.51-38.03-14.15-38.03-34.51Z"/>
  <path class="cls-1" d="m1076.58,243.22h42.43v-69.22c0-20.87,12.87-33.8,32.39-33.8,18.17,0,29,11.61,29,31.05v71.97h42.43v-76.04c0-36.55-23.14-59.65-61.39-59.65-19.52,0-37.13,6.01-48.87,18.32l-4.51-14.86h-31.49v132.24Z"/>
  <path class="cls-1" d="m1254.08,243.22h42.43V110.99h-42.43v132.24Zm-6.09-174.99c0,14.15,11.06,23.92,27.31,23.92s27.31-9.77,27.31-23.92-11.17-23.92-27.31-23.92-27.31,9.87-27.31,23.92Z"/>
  <path class="cls-1" d="m1401.2,243.22h26.75v-33.19h-17.61c-16.7,0-24.49-7.33-24.49-22.7v-45.1h40.18v-31.25h-40.18v-34.2h-32.95l-2.48,17.1c-2.26,13.64-6.43,17.1-22.35,17.1h-13.2v31.25h28.55v50.9c0,32.17,20.65,50.09,57.78,50.09Z"/>
  <path class="cls-1" d="m1452.52,243.22h42.43V110.99h-42.43v132.24Zm-6.09-174.99c0,14.15,11.06,23.92,27.31,23.92s27.31-9.77,27.31-23.92-11.17-23.92-27.31-23.92-27.31,9.87-27.31,23.92Z"/>
  <path class="cls-1" d="m1600.99,246.79c48.53,0,82.05-28.5,82.05-69.73s-33.52-69.53-82.05-69.53-82.39,28.4-82.39,69.53,33.52,69.73,82.39,69.73Zm-40.52-69.73c0-21.68,16.82-36.85,40.52-36.85s40.18,15.17,40.18,36.85-16.48,36.75-40.18,36.75-40.52-15.17-40.52-36.75Z"/>
  <path class="cls-1" d="m1706.77,243.22h42.43v-69.22c0-20.87,12.87-33.8,32.39-33.8,18.17,0,29,11.61,29,31.05v71.97h42.43v-76.04c0-36.55-23.14-59.65-61.39-59.65-19.52,0-37.13,6.01-48.87,18.32l-4.51-14.86h-31.49v132.24Z"/>
  <path class="cls-1" d="m2012.13,243.22h26.75v-33.19h-17.61c-16.7,0-24.49-7.33-24.49-22.7v-45.1h40.18v-31.25h-40.18v-34.2h-32.95l-2.48,17.1c-2.26,13.64-6.43,17.1-22.35,17.1h-13.2v31.25h28.55v50.9c0,32.17,20.65,50.09,57.78,50.09Z"/>
  <path class="cls-1" d="m2132.63,246.79c36,0,64.55-16.7,77.31-44.59h-42.89c-7,8.75-19.64,13.84-33.52,13.84-19.3,0-34.31-9.87-38.26-27.99h117.48c2.48-48.35-29.23-80.52-79.56-80.52-47.4,0-80.13,28.4-80.13,69.53s32.39,69.73,79.56,69.73Zm-37.13-82.86c4.74-16.08,19.3-25.96,38.03-25.96s33.52,9.87,38.26,25.96h-76.29Z"/>
  <path class="cls-1" d="m2305.95,246.79c41.31,0,72.34-21.99,80.13-56.7h-41.31c-5.87,14.35-20.31,23.72-38.26,23.72-22.91,0-38.82-15.17-38.82-36.75s15.91-36.85,38.82-36.85c16.82,0,30.47,8.14,37.47,21.48h40.74c-6.77-32.78-38.03-54.16-78.77-54.16-46.84,0-80.13,28.91-80.13,69.53s32.95,69.73,80.13,69.73Z"/>
  <path class="cls-1" d="m2409.25,243.22h42.43v-69.53c0-20.87,12.87-33.49,32.39-33.49,18.17,0,29,11.1,29,30.54v72.48h42.43v-76.25c0-36.85-22.91-59.45-60.83-59.45-16.48,0-31.83,4.48-43,13.54V56.93h-42.43v186.29Z"/>
  <path class="cls-1" d="m841.73,416.13c-4.51,0-8.92-.51-13.09-1.63-4.29-1.32-7.45-3.05-9.48-5.29l2.71-4.48c2.03,1.93,4.97,3.56,8.58,4.89,3.61,1.12,7.34,1.63,11.29,1.63,5.42,0,9.48-.81,12.19-2.44,2.71-1.83,4.06-4.28,4.06-7.33,0-2.14-.79-3.77-2.26-4.89-1.58-1.32-3.39-2.24-5.42-2.85-2.14-.81-5.19-1.63-9.03-2.44-4.51-1.02-8.13-2.04-10.83-2.85-2.71-1.02-5.19-2.54-7.22-4.48-1.81-2.14-2.71-4.89-2.71-8.14,0-2.65.68-5.09,2.26-7.33,1.81-2.44,4.29-4.28,7.67-5.7,3.27-1.32,7.45-2.04,12.64-2.04,3.27,0,6.55.41,9.93,1.22,3.27.81,6.09,2.04,8.58,3.66l-2.26,4.48c-2.48-1.32-5.19-2.44-8.13-3.26-2.71-.81-5.42-1.22-8.13-1.22-5.42,0-9.48,1.02-12.19,2.85-2.71,1.93-4.06,4.28-4.06,6.92,0,2.24.68,3.97,2.26,5.29,1.47,1.43,3.27,2.44,5.42,3.26,2.37.61,5.42,1.22,9.03,2.04,4.51,1.12,8.13,2.24,10.83,3.26,2.71.81,4.97,2.24,6.77,4.07,1.81,1.93,2.71,4.68,2.71,8.14,0,2.75-.79,5.19-2.26,7.33-1.58,2.24-4.06,3.97-7.67,5.29-3.39,1.43-7.45,2.04-12.19,2.04Z"/>
  <path class="cls-1" d="m963.09,416.13c-6.09,0-11.51-1.22-16.25-3.66-4.85-2.44-8.58-5.7-11.29-9.77-2.71-4.28-4.06-9.06-4.06-14.25s1.35-9.77,4.06-13.84c2.71-4.28,6.43-7.74,11.29-10.18,4.74-2.44,10.16-3.66,16.25-3.66s11.4,1.22,16.25,3.66c4.74,2.44,8.58,5.9,11.29,10.18,2.71,4.07,4.06,8.75,4.06,13.84s-1.35,9.98-4.06,14.25c-2.71,4.38-6.55,7.74-11.29,10.18-4.85,2.24-10.27,3.26-16.25,3.26Zm0-4.89c4.74,0,9.14-.92,13.09-2.85,3.84-2.14,6.88-4.89,9.03-8.14,2.03-3.46,3.16-7.43,3.16-11.81s-1.13-8.14-3.16-11.4c-2.14-3.46-5.19-6.21-9.03-8.14-3.95-1.83-8.35-2.85-13.09-2.85s-9.25,1.02-13.09,2.85c-3.61,1.93-6.66,4.68-9.03,8.14-2.14,3.26-3.16,7.13-3.16,11.4s1.02,8.35,3.16,11.81c2.37,3.26,5.42,6.01,9.03,8.14,3.84,1.93,8.24,2.85,13.09,2.85Z"/>
  <path class="cls-1" d="m1094.32,416.13c-6.09,0-11.51-1.02-16.25-3.26-4.85-2.44-8.58-5.8-11.29-10.18-2.71-4.28-4.06-9.06-4.06-14.25s1.35-9.77,4.06-13.84c2.71-4.28,6.43-7.74,11.29-10.18,4.74-2.44,10.16-3.66,16.25-3.66,4.51,0,8.58.71,12.19,2.04,3.84,1.43,7.22,3.46,9.93,6.11l-4.06,3.66c-4.85-4.28-10.83-6.52-18.06-6.52-4.51,0-8.8,1.02-12.64,2.85-3.95,1.93-7.11,4.68-9.48,8.14-2.14,3.26-3.16,7.13-3.16,11.4s1.02,8.35,3.16,11.81c2.37,3.26,5.53,6.01,9.48,8.14,3.84,1.93,8.13,2.85,12.64,2.85,7.22,0,13.2-2.24,18.06-6.92l4.06,3.66c-2.71,2.75-6.09,4.78-9.93,6.11-3.61,1.43-7.67,2.04-12.19,2.04Z"/>
  <path class="cls-1" d="m1189,361.15h6.32v54.56h-6.32v-54.56Z"/>
  <path class="cls-1" d="m1311.77,401.06h-33.86l-7.22,14.66h-6.77l27.99-54.56h5.87l27.99,54.56h-6.77l-7.22-14.66Zm-2.71-4.48l-14.45-29.32-14.45,29.32h28.89Z"/>
  <path class="cls-1" d="m1394.54,361.15h6.32v49.68h33.86v4.89h-40.18v-54.56Z"/>
  <path class="cls-1" d="m1648.32,361.15v54.56h-6.32v-43.57l-23.47,36.65h-3.16l-23.93-36.24v43.16h-5.87v-54.56h4.97l26.18,40.31,26.18-40.31h5.42Z"/>
  <path class="cls-1" d="m1769.25,410.83v4.89h-42.43v-54.56h41.08v5.29h-34.76v19.14h31.15v4.89h-31.15v20.36h36.11Z"/>
  <path class="cls-1" d="m1843.37,361.15h24.38c6.32,0,11.85,1.22,16.7,3.66,5.08,2.24,9.03,5.5,11.74,9.77,2.71,4.07,4.06,8.75,4.06,13.84,0,5.5-1.35,10.18-4.06,14.25s-6.66,7.33-11.74,9.77c-4.85,2.24-10.38,3.26-16.7,3.26h-24.38v-54.56Zm23.93,49.68c5.42,0,10.04-.92,13.99-2.85,3.84-1.83,6.88-4.48,9.03-7.74,2.37-3.46,3.61-7.43,3.61-11.81s-1.24-8.14-3.61-11.4c-2.14-3.46-5.19-6.11-9.03-7.74-3.95-1.83-8.58-2.85-13.99-2.85h-17.61v44.38h17.61Z"/>
  <path class="cls-1" d="m1973.47,361.15h6.32v54.56h-6.32v-54.56Z"/>
  <path class="cls-1" d="m2096.24,401.06h-33.86l-7.22,14.66h-6.77l27.99-54.56h5.87l27.99,54.56h-6.77l-7.22-14.66Zm-2.71-4.48l-14.45-29.32-14.45,29.32h28.89Z"/>
  <path class="cls-1" d="m2298.32,387.62c3.84.81,6.88,2.44,9.03,4.89,2.37,2.24,3.61,5.09,3.61,8.55,0,4.68-2.03,8.35-5.87,10.99-3.95,2.44-9.71,3.66-17.15,3.66h-27.54v-54.56h25.73c6.88,0,12.19,1.22,15.8,3.66,3.61,2.44,5.42,6.01,5.42,10.59,0,3.05-.79,5.6-2.26,7.74-1.58,1.93-3.84,3.46-6.77,4.48Zm-31.6-21.58v19.55h18.96c5.08,0,8.8-.81,11.29-2.44,2.71-1.63,4.06-4.07,4.06-7.33s-1.35-5.7-4.06-7.33c-2.48-1.63-6.21-2.44-11.29-2.44h-18.96Zm21.22,44.79c5.42,0,9.48-.81,12.19-2.44,2.71-1.63,4.06-4.17,4.06-7.74,0-6.72-5.42-10.18-16.25-10.18h-21.22v20.36h21.22Z"/>
  <path class="cls-1" d="m2410.47,416.13c-6.09,0-11.51-1.22-16.25-3.66-4.85-2.44-8.58-5.7-11.29-9.77-2.71-4.28-4.06-9.06-4.06-14.25s1.35-9.77,4.06-13.84c2.71-4.28,6.43-7.74,11.29-10.18,4.74-2.44,10.16-3.66,16.25-3.66s11.4,1.22,16.25,3.66c4.74,2.44,8.58,5.9,11.29,10.18,2.71,4.07,4.06,8.75,4.06,13.84s-1.35,9.98-4.06,14.25c-2.71,4.38-6.55,7.74-11.29,10.18-4.85,2.24-10.27,3.26-16.25,3.26Zm0-4.89c4.74,0,9.14-.92,13.09-2.85,3.84-2.14,6.88-4.89,9.03-8.14,2.03-3.46,3.16-7.43,3.16-11.81s-1.13-8.14-3.16-11.4c-2.14-3.46-5.19-6.21-9.03-8.14-3.95-1.83-8.35-2.85-13.09-2.85s-9.25,1.02-13.09,2.85c-3.61,1.93-6.66,4.68-9.03,8.14-2.14,3.26-3.16,7.13-3.16,11.4s1.02,8.35,3.16,11.81c2.37,3.26,5.42,6.01,9.03,8.14,3.84,1.93,8.24,2.85,13.09,2.85Z"/>
  <path class="cls-1" d="m2527.26,366.45h-21.22v-5.29h48.75v5.29h-21.22v49.27h-6.32v-49.27Z"/>
</svg>