<?xml version="1.0" encoding="utf-8"?>
<!-- Generator: Adobe Illustrator 27.2.0, SVG Export Plug-In . SVG Version: 6.00 Build 0)  -->
<svg version="1.1" id="Camada_1" xmlns="http://www.w3.org/2000/svg" xmlns:xlink="http://www.w3.org/1999/xlink" x="0px" y="0px"
	 viewBox="0 0 512 512" style="enable-background:new 0 0 512 512;" xml:space="preserve">
<style type="text/css">
	.st0{clip-path:url(#SVGID_00000037669988339166712450000007035791000114249128_);}
	.st1{fill:#00A2FF;}
	.st2{clip-path:url(#SVGID_00000089574038614731529230000018320383053512828060_);}
	.st3{clip-path:url(#SVGID_00000022530688856563493740000010276856847792609706_);}
	.st4{fill:#FFFFFF;}
	.st5{fill:#121E55;}
</style>
<g>
	<defs>
		<rect id="SVGID_1_" x="138.2" y="117.9" width="224.5" height="187.9"/>
	</defs>
	<clipPath id="SVGID_00000107550687585327073500000000880389972492697227_">
		<use xlink:href="#SVGID_1_"  style="overflow:visible;"/>
	</clipPath>
	<g style="clip-path:url(#SVGID_00000107550687585327073500000000880389972492697227_);">
		<path class="st1" d="M325,274.4c-1.9-1.9-4.5-3.1-7.3-3.1c-2.9,0-5.5,1.2-7.3,3.1s-3,4.5-3,7.4s1.2,5.5,3,7.4
			c1.9,1.9,4.5,3.1,7.3,3.1c2.9,0,5.5-1.2,7.3-3.1c1.9-1.9,3-4.5,3-7.4S326.8,276.3,325,274.4 M200.4,177.7
			c5.3-15.8,14.9-29.5,27.5-39.6c14.5-11.7,32.7-18.6,52.6-18.6c19.6,0,37.7,6.8,52.1,18.2c14.7,11.7,25.4,28.1,30,47.1l-17.2,4.2
			c-3.6-15-12.1-28-23.7-37.2c-11.3-9-25.6-14.4-41.2-14.4c-15.7,0-30.2,5.5-41.6,14.7c-9.7,7.8-17.2,18.3-21.4,30.4
			c2,0.9,3.9,2,5.8,3.1c8.7,5.4,15.9,13.1,20.6,22.3l-15.7,8.3c-3.2-6.3-8.2-11.6-14.1-15.2c-5.7-3.5-12.5-5.5-19.8-5.5
			c-10.6,0-20.1,4.3-27,11.4c-6.9,7-11.2,16.7-11.2,27.4c0,10.7,4.3,20.4,11.2,27.4c6.9,7,16.5,11.3,27,11.3h101.3
			c1.2-3,3-5.7,5.2-8c4.3-4.3,10.2-7,16.7-7c6.5,0,12.5,2.7,16.7,7c4.3,4.3,6.9,10.3,6.9,17c0,6.6-2.7,12.6-6.9,17
			c-4.3,4.3-10.2,7-16.7,7c-6.5,0-12.5-2.7-16.7-7c-2.2-2.3-4-5-5.2-8H194.3c-15.4,0-29.5-6.4-39.6-16.6
			c-10.1-10.3-16.4-24.5-16.4-40.1s6.3-29.9,16.4-40.1c10.1-10.3,24.1-16.6,39.6-16.6C196.4,177.3,198.4,177.5,200.4,177.7z"/>
	</g>
</g>
<g>
	<defs>
		<rect id="SVGID_00000168117577730423555190000015447430420783331757_" x="77.7" y="96.2" width="116.9" height="70.6"/>
	</defs>
	<clipPath id="SVGID_00000082362267224378328210000005699224611562452879_">
		<use xlink:href="#SVGID_00000168117577730423555190000015447430420783331757_"  style="overflow:visible;"/>
	</clipPath>
	<g style="clip-path:url(#SVGID_00000082362267224378328210000005699224611562452879_);">
		<path class="st1" d="M132.9,103.7L132.9,103.7L132.9,103.7c0.2,0,0.4,0,0.6-0.1l0,0l0.3,0h0l0.3,0h0l0.3,0h0l0.3,0h0l0.3,0h0
			l0.3,0h0.3l0.3,0l0.3,0h0.3l0.3,0h0l0.3,0h0l0.3,0h0l0.3,0h0l0.3,0h0l0.3,0l0,0c0.2,0,0.4,0,0.6,0.1l0,0h0
			c5.3,0.6,10.1,2.7,14,5.9c4,3.2,7,7.5,8.8,12.4c-0.8,0.4-1.6,0.8-2.4,1.3c-3.6,2.2-6.5,5.3-8.4,9.1l6.4,3.4
			c1.3-2.6,3.3-4.7,5.8-6.2c2.3-1.4,5.1-2.3,8.1-2.3c4.3,0,8.2,1.8,11.1,4.6c2.8,2.9,4.6,6.8,4.6,11.2c0,4.4-1.8,8.3-4.6,11.2
			c-2.8,2.9-6.7,4.6-11.1,4.6h-70.5c-4.3,0-8.2-1.8-11.1-4.6c-2.8-2.9-4.6-6.8-4.6-11.2c0-4.4,1.8-8.3,4.6-11.2
			c2.8-2.9,6.7-4.6,11.1-4.6c3,0,5.8,0.8,8.1,2.3c2.4,1.5,4.5,3.7,5.8,6.2l6.4-3.4c-1.9-3.8-4.9-6.9-8.4-9.1
			c-0.8-0.5-1.5-0.9-2.4-1.3c1.7-4.9,4.8-9.2,8.8-12.4C122.8,106.4,127.6,104.3,132.9,103.7 M168.7,120c-2.2-6.5-6.1-12.1-11.2-16.2
			c-5.1-4.1-11.4-6.8-18.2-7.5l-0.3,0l0,0l-0.4,0l-0.3,0l0,0l-0.3,0h0l-0.4,0h0l-0.4,0h0l-0.4,0h-0.4l-0.4,0h-0.4l-0.4,0h0l-0.4,0h0
			l-0.4,0h0l-0.4,0h0l-0.3,0h0l-0.3,0l-0.4,0l0,0l-0.3,0c-6.8,0.7-13.1,3.4-18.2,7.5c-5.1,4.1-9.1,9.7-11.2,16.2
			c-0.8-0.1-1.7-0.1-2.5-0.1c-6.3,0-12,2.6-16.2,6.8c-4.1,4.2-6.7,10-6.7,16.4c0,6.4,2.6,12.2,6.7,16.4c4.1,4.2,9.9,6.8,16.2,6.8
			h70.5c6.3,0,12-2.6,16.2-6.8c4.1-4.2,6.7-10,6.7-16.4c0-6.4-2.6-12.2-6.7-16.4c-4.1-4.2-9.9-6.8-16.2-6.8
			C170.3,119.9,169.5,119.9,168.7,120z"/>
	</g>
</g>
<g>
	<defs>
		<rect id="SVGID_00000181801492684110334350000016075362209026461596_" x="77.7" y="88" width="124.7" height="80.5"/>
	</defs>
	<clipPath id="SVGID_00000119113738652865039340000007165364777160023179_">
		<use xlink:href="#SVGID_00000181801492684110334350000016075362209026461596_"  style="overflow:visible;"/>
	</clipPath>
	<g style="clip-path:url(#SVGID_00000119113738652865039340000007165364777160023179_);">
		<path class="st4" d="M77.7,88h125.4v80.2H77.7V88z"/>
	</g>
</g>
<g>
	<g transform="translate(28.937484, 255.519754)">
		<g>
			<path class="st5" d="M-21.8,133.7h12.2V91.1h-12.2V133.7z M-23.5,77.3c0,4.5,3.2,7.7,7.9,7.7c4.7,0,7.9-3.2,7.9-7.7
				s-3.2-7.7-7.9-7.7C-20.3,69.6-23.5,72.8-23.5,77.3z"/>
		</g>
	</g>
</g>
<g>
	<g transform="translate(42.580372, 255.519754)">
		<g>
			<path class="st5" d="M7.1,151.7c13.5,0,22.1-7.6,22.1-20.4V91.1h-9.1l-1.3,4.7C15.2,92.1,10,90,4,90c-11.9,0-20.4,8.8-20.4,21.3
				c0,12.5,8.5,21.3,20.4,21.3c5.1,0,9.6-1.5,13-4.2v3c0,6.9-3.4,10.4-10.1,10.4c-5.1,0-8.4-2.1-9.3-5.8h-11.9
				C-13.3,145.7-5.1,151.7,7.1,151.7z M-4.3,111.2c0-6.5,4.5-11,10.9-11s11,4.5,11,11c0,6.6-4.6,11.1-11,11.1S-4.3,117.8-4.3,111.2z
				"/>
		</g>
	</g>
</g>
<g>
	<g transform="translate(75.144556, 255.519754)">
		<g>
			<path class="st5" d="M6.5,133.7h12.2v-22.3c0-6.7,3.7-10.9,9.3-10.9c5.2,0,8.3,3.7,8.3,10v23.2h12.2v-24.5
				c0-11.8-6.7-19.2-17.7-19.2c-5.6,0-10.7,1.9-14,5.9l-1.3-4.8H6.5V133.7z"/>
		</g>
	</g>
</g>
<g>
	<g transform="translate(106.812462, 255.519754)">
		<g>
			<path class="st5" d="M25.9,133.7h12.2V91.1H25.9V133.7z M24.1,77.3c0,4.5,3.2,7.7,7.9,7.7c4.7,0,7.9-3.2,7.9-7.7
				s-3.2-7.7-7.9-7.7C27.3,69.6,24.1,72.8,24.1,77.3z"/>
		</g>
	</g>
</g>
<g>
	<g transform="translate(120.455352, 255.519754)">
		<g>
			<path class="st5" d="M54.5,133.7h7.7V123h-5.1c-4.8,0-7.1-2.4-7.1-7.3v-14.5h11.6V91.1H50.1v-11h-9.5l-0.7,5.5
				c-0.6,4.4-1.8,5.5-6.4,5.5h-3.8v10.1h8.2v16.4C37.9,128,43.8,133.7,54.5,133.7z"/>
		</g>
	</g>
</g>
<g>
	<g transform="translate(142.214471, 255.519754)">
		<g>
			<path class="st5" d="M47.5,133.7h12.2V91.1H47.5V133.7z M45.8,77.3c0,4.5,3.2,7.7,7.9,7.7c4.7,0,7.9-3.2,7.9-7.7
				s-3.2-7.7-7.9-7.7C49,69.6,45.8,72.8,45.8,77.3z"/>
		</g>
	</g>
</g>
<g>
	<g transform="translate(155.857361, 255.519754)">
		<g>
			<path class="st5" d="M76.6,134.8c14,0,23.6-9.2,23.6-22.5c0-13.2-9.6-22.4-23.6-22.4c-14,0-23.7,9.2-23.7,22.4
				C52.9,125.7,62.5,134.8,76.6,134.8z M64.9,112.4c0-7,4.8-11.8,11.6-11.8c6.8,0,11.6,4.9,11.6,11.8s-4.7,11.8-11.6,11.8
				C69.8,124.2,64.9,119.4,64.9,112.4z"/>
		</g>
	</g>
</g>
<g>
	<g transform="translate(187.57506, 255.519754)">
		<g>
			<path class="st5" d="M75.3,133.7h12.2v-22.3c0-6.7,3.7-10.9,9.3-10.9c5.2,0,8.3,3.7,8.3,10v23.2h12.2v-24.5
				c0-11.8-6.7-19.2-17.7-19.2c-5.6,0-10.7,1.9-14,5.9l-1.3-4.8h-9.1V133.7z"/>
		</g>
	</g>
</g>
<g>
	<g transform="translate(229.450133, 255.519754)">
		<g>
			<path class="st5" d="M121.2,133.7h7.7V123h-5.1c-4.8,0-7.1-2.4-7.1-7.3v-14.5h11.6V91.1h-11.6v-11h-9.5l-0.7,5.5
				c-0.6,4.4-1.8,5.5-6.4,5.5h-3.8v10.1h8.2v16.4C104.6,128,110.5,133.7,121.2,133.7z"/>
		</g>
	</g>
</g>
<g>
	<g transform="translate(251.209241, 255.519754)">
		<g>
			<path class="st5" d="M134.1,134.8c10.3,0,18.5-5.4,22.2-14.4H144c-2,2.8-5.6,4.5-9.6,4.5c-5.5,0-9.9-3.2-11-9h33.8
				c0.7-15.6-8.4-26-22.9-26c-13.6,0-23,9.2-23,22.4C111.2,125.7,120.5,134.8,134.1,134.8z M123.4,108.2c1.4-5.2,5.5-8.4,10.9-8.4
				c5.6,0,9.6,3.2,11,8.4H123.4z"/>
		</g>
	</g>
</g>
<g>
	<g transform="translate(282.030673, 255.519754)">
		<g>
			<path class="st5" d="M153.1,134.8c11.9,0,20.8-7.1,23-18.3h-11.9c-1.7,4.6-5.9,7.6-11,7.6c-6.6,0-11.2-4.9-11.2-11.8
				s4.6-11.8,11.2-11.8c4.8,0,8.7,2.6,10.8,6.9h11.7C173.8,96.9,164.8,90,153.1,90c-13.5,0-23,9.3-23,22.4
				C130.1,125.5,139.5,134.8,153.1,134.8z"/>
		</g>
	</g>
</g>
<g>
	<g transform="translate(312.90191, 255.519754)">
		<g>
			<path class="st5" d="M151.9,133.7h12.2v-22.4c0-6.7,3.7-10.8,9.3-10.8c5.2,0,8.3,3.6,8.3,9.8v23.4H194v-24.6
				c0-11.8-6.6-19.1-17.5-19.1c-4.7,0-9.1,1.5-12.4,4.4V73.7h-12.2V133.7z"/>
		</g>
	</g>
</g>
<g>
	<g transform="translate(68.103415, 280.786953)">
		<g>
			<path class="st5" d="M2,149.7c-1,0-2-0.2-2.9-0.5c-0.9-0.3-1.6-0.8-2.1-1.3l0.6-1.1c0.5,0.5,1.1,0.9,1.9,1.2
				c0.8,0.3,1.6,0.5,2.5,0.5c1.2,0,2.1-0.2,2.7-0.7c0.6-0.5,0.9-1,0.9-1.7c0-0.5-0.2-1-0.5-1.3c-0.3-0.3-0.7-0.6-1.2-0.7
				c-0.5-0.2-1.1-0.4-2-0.6c-1-0.3-1.8-0.5-2.4-0.7c-0.6-0.2-1.1-0.6-1.5-1.1c-0.4-0.5-0.6-1.2-0.6-2c0-0.7,0.2-1.3,0.5-1.9
				s0.9-1,1.6-1.3c0.7-0.3,1.6-0.5,2.7-0.5c0.8,0,1.5,0.1,2.2,0.3c0.7,0.2,1.4,0.5,1.9,0.9l-0.5,1.1c-0.6-0.4-1.2-0.6-1.8-0.8
				c-0.6-0.2-1.3-0.3-1.9-0.3c-1.2,0-2,0.2-2.6,0.7c-0.6,0.5-0.9,1-0.9,1.8c0,0.5,0.2,1,0.5,1.3c0.3,0.3,0.7,0.6,1.2,0.7
				c0.5,0.2,1.1,0.4,2,0.6c1,0.2,1.8,0.5,2.4,0.7c0.6,0.2,1.1,0.6,1.5,1.1c0.4,0.5,0.6,1.1,0.6,2c0,0.7-0.2,1.3-0.6,1.9
				c-0.4,0.6-0.9,1-1.7,1.3C4,149.6,3.1,149.7,2,149.7z"/>
		</g>
	</g>
</g>
<g>
	<g transform="translate(83.45713, 280.786953)">
		<g>
			<path class="st5" d="M13.5,149.7c-1.3,0-2.5-0.3-3.6-0.9c-1.1-0.6-1.9-1.4-2.5-2.5c-0.6-1.1-0.9-2.2-0.9-3.5
				c0-1.3,0.3-2.5,0.9-3.5c0.6-1.1,1.5-1.9,2.5-2.5c1.1-0.6,2.3-0.9,3.6-0.9c1.3,0,2.5,0.3,3.6,0.9c1.1,0.6,1.9,1.4,2.5,2.5
				c0.6,1.1,0.9,2.2,0.9,3.5c0,1.3-0.3,2.5-0.9,3.5c-0.6,1.1-1.4,1.9-2.5,2.5C16,149.4,14.8,149.7,13.5,149.7z M13.5,148.4
				c1.1,0,2-0.2,2.8-0.7c0.9-0.5,1.5-1.1,2-2c0.5-0.9,0.7-1.8,0.7-2.9c0-1.1-0.2-2-0.7-2.9c-0.5-0.9-1.2-1.5-2-2
				c-0.8-0.5-1.8-0.7-2.8-0.7s-2,0.2-2.9,0.7c-0.9,0.5-1.5,1.1-2,2c-0.5,0.9-0.7,1.8-0.7,2.9c0,1.1,0.2,2,0.7,2.9
				c0.5,0.9,1.2,1.5,2,2C11.5,148.2,12.5,148.4,13.5,148.4z"/>
		</g>
	</g>
</g>
<g>
	<g transform="translate(101.466078, 280.786953)">
		<g>
			<path class="st5" d="M24.5,149.7c-1.3,0-2.5-0.3-3.6-0.9c-1.1-0.6-1.9-1.4-2.5-2.5c-0.6-1.1-0.9-2.2-0.9-3.5
				c0-1.3,0.3-2.5,0.9-3.5c0.6-1.1,1.5-1.9,2.5-2.5c1.1-0.6,2.3-0.9,3.6-0.9c1,0,1.9,0.2,2.7,0.5c0.8,0.3,1.5,0.8,2.1,1.5l-0.9,0.9
				c-1.1-1.1-2.4-1.6-4-1.6c-1.1,0-2,0.2-2.9,0.7c-0.9,0.5-1.6,1.2-2,2c-0.5,0.9-0.7,1.8-0.7,2.9c0,1.1,0.2,2,0.7,2.9
				c0.5,0.9,1.2,1.5,2,2c0.9,0.5,1.8,0.7,2.9,0.7c1.6,0,2.9-0.5,4-1.6l0.9,0.9c-0.6,0.6-1.3,1.1-2.2,1.5
				C26.4,149.6,25.5,149.7,24.5,149.7z"/>
		</g>
	</g>
</g>
<g>
	<g transform="translate(118.052583, 280.786953)">
		<g>
			<path class="st5" d="M28.8,136.1h1.4v13.5h-1.4V136.1z"/>
		</g>
	</g>
</g>
<g>
	<g transform="translate(129.696095, 280.786953)">
		<g>
			<path class="st5" d="M44.3,146h-7.5l-1.6,3.6h-1.5l6.1-13.5h1.4l6.1,13.5h-1.5L44.3,146z M43.8,144.9l-3.2-7.3l-3.2,7.3H43.8z"/>
		</g>
	</g>
</g>
<g>
	<g transform="translate(146.258892, 280.786953)">
		<g>
			<path class="st5" d="M46.1,136.1h1.4v12.3H55v1.2h-8.9V136.1z"/>
		</g>
	</g>
</g>
<g>
	<g transform="translate(172.473774, 280.786953)">
		<g>
			<path class="st5" d="M76,136.1v13.5h-1.4v-10.8l-5.2,9.1h-0.7l-5.3-9v10.8h-1.3v-13.5h1.2l5.8,10l5.7-10H76z"/>
		</g>
	</g>
</g>
<g>
	<g transform="translate(191.85776, 280.786953)">
		<g>
			<path class="st5" d="M83.4,148.4v1.2H74v-13.5h9.2v1.2h-7.8v4.8h6.9v1.2h-6.9v5H83.4z"/>
		</g>
	</g>
</g>
<g>
	<g transform="translate(207.851592, 280.786953)">
		<g>
			<path class="st5" d="M83.8,136.1h5.4c1.4,0,2.7,0.3,3.7,0.9c1.1,0.6,1.9,1.4,2.5,2.4c0.6,1,0.9,2.2,0.9,3.5
				c0,1.3-0.3,2.5-0.9,3.5c-0.6,1-1.4,1.8-2.5,2.4c-1.1,0.6-2.3,0.9-3.7,0.9h-5.4V136.1z M89.1,148.4c1.2,0,2.2-0.2,3.1-0.7
				c0.9-0.5,1.5-1.1,2-2c0.5-0.8,0.7-1.8,0.7-2.9c0-1.1-0.2-2-0.7-2.9c-0.5-0.8-1.2-1.5-2-2c-0.9-0.5-1.9-0.7-3.1-0.7h-4v11H89.1z"
				/>
		</g>
	</g>
</g>
<g>
	<g transform="translate(225.706436, 280.786953)">
		<g>
			<path class="st5" d="M94.7,136.1h1.4v13.5h-1.4V136.1z"/>
		</g>
	</g>
</g>
<g>
	<g transform="translate(237.349955, 280.786953)">
		<g>
			<path class="st5" d="M110.2,146h-7.5l-1.6,3.6h-1.5l6.1-13.5h1.4l6.1,13.5h-1.5L110.2,146z M109.7,144.9l-3.2-7.3l-3.2,7.3H109.7
				z"/>
		</g>
	</g>
</g>
<g>
	<g transform="translate(265.082112, 280.786953)">
		<g>
			<path class="st5" d="M127.2,142.6c0.9,0.2,1.6,0.6,2,1.1c0.5,0.6,0.7,1.3,0.7,2.2c0,1.2-0.4,2-1.3,2.7c-0.8,0.6-2.1,0.9-3.8,0.9
				h-6.1v-13.5h5.8c1.5,0,2.6,0.3,3.4,0.9c0.8,0.6,1.2,1.4,1.2,2.5c0,0.8-0.2,1.4-0.6,1.9C128.3,142,127.8,142.4,127.2,142.6z
				 M120.2,137.3v4.9h4.3c1.1,0,1.9-0.2,2.5-0.6c0.6-0.4,0.9-1,0.9-1.8c0-0.8-0.3-1.4-0.9-1.8c-0.6-0.4-1.4-0.6-2.5-0.6H120.2z
				 M124.9,148.4c1.2,0,2.1-0.2,2.7-0.6c0.6-0.4,0.9-1.1,0.9-1.9c0-1.7-1.2-2.5-3.6-2.5h-4.7v5.1H124.9z"/>
		</g>
	</g>
</g>
<g>
	<g transform="translate(282.083499, 280.786953)">
		<g>
			<path class="st5" d="M135,149.7c-1.3,0-2.5-0.3-3.6-0.9c-1.1-0.6-1.9-1.4-2.5-2.5c-0.6-1.1-0.9-2.2-0.9-3.5
				c0-1.3,0.3-2.5,0.9-3.5c0.6-1.1,1.5-1.9,2.5-2.5c1.1-0.6,2.3-0.9,3.6-0.9c1.3,0,2.5,0.3,3.6,0.9c1.1,0.6,1.9,1.4,2.5,2.5
				c0.6,1.1,0.9,2.2,0.9,3.5c0,1.3-0.3,2.5-0.9,3.5c-0.6,1.1-1.4,1.9-2.5,2.5C137.5,149.4,136.3,149.7,135,149.7z M135,148.4
				c1.1,0,2-0.2,2.8-0.7c0.9-0.5,1.5-1.1,2-2c0.5-0.9,0.7-1.8,0.7-2.9c0-1.1-0.2-2-0.7-2.9c-0.5-0.9-1.2-1.5-2-2
				c-0.8-0.5-1.8-0.7-2.8-0.7c-1.1,0-2,0.2-2.9,0.7c-0.9,0.5-1.5,1.1-2,2c-0.5,0.9-0.7,1.8-0.7,2.9c0,1.1,0.2,2,0.7,2.9
				c0.5,0.9,1.2,1.5,2,2C133,148.2,134,148.4,135,148.4z"/>
		</g>
	</g>
</g>
<g>
	<g transform="translate(300.092453, 280.786953)">
		<g>
			<path class="st5" d="M142.8,137.3h-4.7v-1.2h10.8v1.2h-4.7v12.3h-1.4V137.3z"/>
		</g>
	</g>
</g>
</svg>
